<?xml version="1.0" standalone="no"?>
<!DOCTYPE svg PUBLIC "-//W3C//DTD SVG 1.1//EN" "http://www.w3.org/Graphics/SVG/1.1/DTD/svg11.dtd" >
<!--
2013-9-30: Created.
-->
<svg>
<metadata>
Created by iconfont
</metadata>
<defs>

<font id="iconfont" horiz-adv-x="1024" >
  <font-face
    font-family="iconfont"
    font-weight="500"
    font-stretch="normal"
    units-per-em="1024"
    ascent="896"
    descent="-128"
  />
    <missing-glyph />
    
    <glyph glyph-name="xiashengchan" unicode="&#58935;" d="M204.8 896h614.4c112.64 0 204.8-92.16 204.8-204.8v-614.4c0-112.64-92.16-204.8-204.8-204.8H204.8c-112.64 0-204.8 92.16-204.8 204.8V691.2c0 112.64 92.16 204.8 204.8 204.8zM153.6 747.52h716.8v-716.8H153.6zM522.24 81.92H189.44c-15.36 0-25.6-10.24-25.6-25.6s10.24-25.6 25.6-25.6h332.8c15.36 0 25.6 10.24 25.6 25.6s-10.24 25.6-25.6 25.6z m384 194.56l-307.2 163.84L665.6 558.08c15.36 25.6 5.12 56.32-20.48 66.56L450.56 742.4c-25.6 15.36-56.32 5.12-71.68-20.48l-220.16-368.64c-10.24-25.6-5.12-56.32 20.48-71.68l199.68-112.64c25.6-15.36 56.32-5.12 71.68 20.48l71.68 117.76 302.08-179.2c10.24-5.12 25.6-5.12 35.84 10.24l66.56 107.52c5.12 5.12 5.12 10.24 5.12 20.48s-15.36 10.24-25.6 10.24z m-486.4-40.96c-5.12-10.24-20.48-15.36-35.84-10.24l-153.6 87.04c-15.36 10.24-20.48 25.6-10.24 35.84L409.6 675.84c5.12 10.24 25.6 15.36 35.84 10.24l153.6-87.04c15.36-10.24 15.36-25.6 10.24-35.84l-189.44-327.68z m404.48-51.2l-276.48 168.96 25.6 46.08 291.84-148.48-40.96-66.56z"  horiz-adv-x="1024" />

    
    <glyph glyph-name="xiaceliang" unicode="&#58934;" d="M204.8 896h614.4c112.64 0 204.8-92.16 204.8-204.8v-614.4c0-112.64-92.16-204.8-204.8-204.8H204.8c-112.64 0-204.8 92.16-204.8 204.8V691.2c0 112.64 92.16 204.8 204.8 204.8zM808.96 107.52H220.16c-15.36 0-25.6 5.12-35.84 15.36-15.36 20.48-10.24 46.08 10.24 56.32L732.16 706.56c10.24 10.24 25.6 10.24 35.84 0 10.24-10.24 10.24-25.6 0-35.84L240.64 153.6h568.32c15.36 0 25.6-10.24 25.6-25.6s-10.24-20.48-25.6-20.48z m-578.56 35.84zM552.96 122.88l-51.2 15.36c20.48 76.8-15.36 163.84-92.16 204.8l25.6 46.08c97.28-56.32 148.48-163.84 117.76-266.24zM665.6 250.88c-40.96 0-76.8 35.84-76.8 76.8s35.84 76.8 76.8 76.8 76.8-35.84 76.8-76.8-35.84-76.8-76.8-76.8z m0 102.4c-15.36 0-25.6-10.24-25.6-25.6s10.24-25.6 25.6-25.6 25.6 10.24 25.6 25.6-10.24 25.6-25.6 25.6z"  horiz-adv-x="1024" />

    
    <glyph glyph-name="jingshi" unicode="&#58932;" d="M614.4 773.12c15.36-10.24 30.72-25.6 40.96-40.96L1044.48 25.6c25.6-51.2 10.24-112.64-40.96-138.24-15.36-10.24-30.72-10.24-51.2-10.24H174.08c-56.32 0-102.4 46.08-102.4 102.4 0 15.36 5.12 35.84 10.24 51.2L471.04 732.16c30.72 51.2 92.16 66.56 143.36 40.96z m-51.2-686.08c-30.72 0-51.2-25.6-51.2-51.2 0-30.72 25.6-51.2 51.2-51.2 30.72 0 51.2 25.6 51.2 51.2s-25.6 51.2-51.2 51.2z m0 445.44c-15.36 0-30.72-15.36-30.72-30.72v-337.92c0-15.36 15.36-30.72 30.72-30.72s30.72 15.36 30.72 30.72V501.76c0 20.48-15.36 30.72-30.72 30.72z"  horiz-adv-x="1126" />

    
    <glyph glyph-name="zhuyi" unicode="&#58931;" d="M497.371429 896c277.942857 0 497.371429-224.304762 497.371428-497.371429s-224.304762-497.371429-497.371428-497.371428S0 120.685714 0 398.628571 224.304762 896 497.371429 896z m0-672.914286c-29.257143 0-48.761905-24.380952-48.761905-48.761904 0-29.257143 24.380952-48.761905 48.761905-48.761905 29.257143 0 48.761905 24.380952 48.761904 48.761905s-19.504762 48.761905-48.761904 48.761904z m0 424.228572c-14.628571 0-29.257143-14.628571-29.257143-29.257143v-321.828572c0-14.628571 14.628571-29.257143 29.257143-29.257142s29.257143 14.628571 29.257142 29.257142V618.057143c0 19.504762-9.752381 29.257143-29.257142 29.257143z"  horiz-adv-x="1024" />

    
    <glyph glyph-name="rili" unicode="&#58928;" d="M798.72 786.773333h-47.786667v68.266667c0 27.306667-20.48 40.96-34.133333 40.96s-40.96-13.653333-40.96-34.133333v-68.266667H314.026667v68.266667c0 20.48-13.653333 34.133333-34.133334 34.133333s-34.133333-13.653333-34.133333-34.133333v-68.266667h-68.266667C95.573333 786.773333 34.133333 725.333333 34.133333 650.24v-580.266667c0-75.093333 61.44-143.36 143.36-143.36h621.226667c75.093333 0 143.36 61.44 143.36 143.36V650.24c0 75.093333-68.266667 136.533333-143.36 136.533333z m-621.226667-68.266666h75.093334v-157.013334c0-20.48 13.653333-34.133333 34.133333-34.133333s34.133333 13.653333 34.133333 34.133333V718.506667h361.813334v-157.013334c0-20.48 13.653333-34.133333 34.133333-34.133333s34.133333 13.653333 34.133333 34.133333V718.506667h47.786667c40.96 0 68.266667-34.133333 68.266667-68.266667v-402.773333H102.4V650.24c0 40.96 34.133333 68.266667 75.093333 68.266667z m621.226667-716.8H177.493333c-40.96 0-68.266667 34.133333-68.266666 68.266666v109.226667h764.586666v-109.226667c-6.826667-40.96-34.133333-68.266667-75.093333-68.266666z"  horiz-adv-x="1024" />

    
    <glyph glyph-name="shanchu2" unicode="&#58927;" d="M0 896h1335.652174c195.895652 0 356.173913-160.278261 356.173913-356.173913v-667.826087H534.26087C240.417391-128 0 112.417391 0 406.26087V896zM1117.495652 633.321739c8.904348-8.904348 8.904348-17.808696 0-26.713043l-178.086956-178.086957 178.086956-178.086956c8.904348-8.904348 8.904348-17.808696 0-26.713044l-4.452174-4.452174c-8.904348-8.904348-17.808696-8.904348-26.713043 0l-178.086957 178.086957-178.086956-178.086957c-8.904348-8.904348-17.808696-8.904348-26.713044 0l-4.452174 4.452174c-8.904348 8.904348-8.904348 17.808696 0 26.713044l178.086957 178.086956-178.086957 178.086957c-8.904348 8.904348-8.904348 17.808696 0 26.713043l4.452174 4.452174c8.904348 8.904348 17.808696 8.904348 26.713044 0l178.086956-178.086956 178.086957 178.086956c8.904348 4.452174 22.26087 4.452174 31.165217-4.452174z"  horiz-adv-x="1691" />

    
    <glyph glyph-name="shanchushuxing" unicode="&#58926;" d="M512 384m-512 0a512 512 0 1 1 1024 0 512 512 0 1 1-1024 0ZM256 435.2h512c30.72 0 51.2-20.48 51.2-51.2s-20.48-51.2-51.2-51.2H256c-30.72 0-51.2 20.48-51.2 51.2s20.48 51.2 51.2 51.2z"  horiz-adv-x="1024" />

    
    <glyph glyph-name="xinzengshuxing" unicode="&#58925;" d="M512 384m-512 0a512 512 0 1 1 1024 0 512 512 0 1 1-1024 0ZM256 435.2h512c30.72 0 51.2-20.48 51.2-51.2s-20.48-51.2-51.2-51.2H256c-30.72 0-51.2 20.48-51.2 51.2s20.48 51.2 51.2 51.2zM563.2 640v-512c0-30.72-20.48-51.2-51.2-51.2s-51.2 20.48-51.2 51.2V640c0 30.72 20.48 51.2 51.2 51.2s51.2-20.48 51.2-51.2z"  horiz-adv-x="1024" />

    
    <glyph glyph-name="sousuo" unicode="&#58924;" d="M479.726345 106.672552c-82.414345 2.471724-162.286345 32.485517-217.229242 92.371862-119.84331 119.84331-119.84331 314.615172 0 434.458483s317.086897 122.350345 434.458483 0c57.414621-57.414621 89.864828-134.814897 89.864828-219.700966 0-84.921379-32.450207-162.321655-89.864828-219.736276a338.767448 338.767448 0 0 0-217.229241-87.393103zM297.454345 598.545655c-99.892966-99.857655-99.892966-264.651034 2.471724-362.036965 47.457103-47.421793 114.864552-74.893241 179.800276-74.893242 69.914483 0 132.307862 27.471448 179.764965 74.893242 47.421793 47.457103 74.893241 114.864552 74.893242 179.764965 0 69.914483-27.471448 132.343172-74.893242 179.764966-99.857655 99.892966-262.17931 102.4-362.036965 2.507034zM671.955862 209.037241a27.859862 27.859862 0 0 0 39.97131 0l62.42869-62.428689a27.859862 27.859862 0 0 0 0-39.90069c-12.499862-7.521103-27.471448-7.521103-39.97131 4.943448l-62.39338 62.42869a24.152276 24.152276 0 0 0 0 34.957241z"  horiz-adv-x="1024" />

    
    <glyph glyph-name="xiazaimoban" unicode="&#58923;" d="M768 171.885714c-21.942857 0-40.228571 3.657143-62.171429 10.971429-14.628571 3.657143-21.942857 21.942857-14.628571 36.571428 3.657143 14.628571 21.942857 21.942857 36.571429 14.628572 14.628571-3.657143 25.6-7.314286 40.228571-7.314286 65.828571 0 117.028571 54.857143 117.028571 117.028572 0 54.857143-36.571429 102.4-91.428571 117.028571l-18.285714 3.657143-3.657143 18.285714c-14.628571 113.371429-113.371429 201.142857-226.742857 201.142857-102.4 0-193.828571-69.485714-219.428572-168.228571v-14.628572l-18.285714-3.657142c-54.857143-18.285714-95.085714-69.485714-95.085714-131.657143 0-76.8 62.171429-138.971429 138.971428-138.971429 14.628571 0 29.257143-10.971429 29.257143-29.257143s-10.971429-29.257143-29.257143-29.257143c-106.057143 0-190.171429 87.771429-190.171428 190.171429 0 80.457143 51.2 149.942857 124.342857 179.2 36.571429 117.028571 146.285714 193.828571 270.628571 193.828571 135.314286 0 252.342857-98.742857 277.942857-230.4 69.485714-25.6 113.371429-87.771429 113.371429-164.571428-3.657143-84.114286-84.114286-164.571429-179.2-164.571429zM541.257143 347.428571c14.628571 0 29.257143-10.971429 29.257143-29.257142v-186.514286l47.542857 47.542857c10.971429 10.971429 29.257143 10.971429 40.228571 0 10.971429-10.971429 10.971429-29.257143 0-40.228571l-91.428571-91.428572c-7.314286-7.314286-18.285714-10.971429-25.6-7.314286-7.314286-3.657143-18.285714 0-25.6 7.314286l-91.428572 91.428572c-10.971429 10.971429-10.971429 29.257143 0 40.228571 10.971429 10.971429 29.257143 10.971429 40.228572 0l47.542857-47.542857v190.171428c0 14.628571 10.971429 25.6 29.257143 25.6z"  horiz-adv-x="1097" />

    
    <glyph glyph-name="xiaoxitongzhi" unicode="&#58922;" d="M274.285714 281.6v193.828571C274.285714 625.371429 398.628571 749.714286 548.571429 749.714286s274.285714-120.685714 274.285714-274.285715v-193.828571l51.2-102.4c7.314286-18.285714-3.657143-40.228571-25.6-40.228571H248.685714c-21.942857 0-32.914286 21.942857-25.6 40.228571l51.2 102.4zM804.571429 193.828571l-36.571429 69.485715v212.114285c0 120.685714-98.742857 219.428571-219.428571 219.428572s-219.428571-98.742857-219.428572-219.428572V274.285714c0-3.657143 0-7.314286-3.657143-10.971428l-36.571428-69.485715H804.571429z m-380.342858-131.657142c-10.971429 10.971429-14.628571 25.6-3.657142 40.228571s25.6 14.628571 40.228571 3.657143c25.6-21.942857 54.857143-32.914286 87.771429-32.914286 32.914286 0 62.171429 10.971429 87.771428 32.914286 10.971429 10.971429 29.257143 7.314286 40.228572-3.657143 10.971429-10.971429 7.314286-29.257143-3.657143-40.228571-36.571429-25.6-80.457143-43.885714-124.342857-43.885715-43.885714 0-87.771429 18.285714-124.342858 43.885715z"  horiz-adv-x="1097" />

    
    <glyph glyph-name="xinzeng" unicode="&#58921;" d="M512 896c21.942857 0 43.885714-21.942857 43.885714-43.885714v-424.228572h424.228572c21.942857 0 43.885714-14.628571 43.885714-43.885714 0-21.942857-21.942857-43.885714-43.885714-43.885714H555.885714v-424.228572c0-21.942857-21.942857-43.885714-43.885714-43.885714s-43.885714 21.942857-43.885714 43.885714V340.114286H43.885714C21.942857 340.114286 0 362.057143 0 384s21.942857 43.885714 43.885714 43.885714h424.228572V852.114286c0 21.942857 21.942857 43.885714 43.885714 43.885714z"  horiz-adv-x="1024" />

    
    <glyph glyph-name="tongguoshenpi" unicode="&#58920;" d="M851.2-70.4H153.6c-25.6 0-51.2 12.8-70.4 32s-25.6 38.4-25.6 64v185.6c0 25.6 12.8 51.2 32 70.4 12.8 19.2 38.4 25.6 64 25.6h192V390.4c-64 51.2-102.4 121.6-108.8 204.8 0 76.8 25.6 147.2 76.8 198.4C364.8 844.8 428.8 876.8 505.6 876.8c70.4 0 140.8-25.6 192-76.8 51.2-51.2 76.8-115.2 76.8-192 0-83.2-38.4-166.4-108.8-217.6v-83.2h192c25.6 0 51.2-12.8 70.4-32 19.2-19.2 25.6-44.8 25.6-70.4v-185.6c0-25.6-12.8-51.2-25.6-70.4-25.6-12.8-51.2-19.2-76.8-19.2z m-697.6 320c-12.8 0-19.2-6.4-25.6-12.8-6.4-6.4-12.8-19.2-12.8-25.6v-185.6c0-12.8 6.4-19.2 12.8-25.6 6.4-6.4 19.2-12.8 25.6-12.8h697.6c12.8 0 19.2 6.4 25.6 12.8 6.4 6.4 12.8 19.2 12.8 25.6v185.6c0 12.8-6.4 19.2-12.8 25.6-6.4 6.4-19.2 12.8-25.6 12.8H601.6V422.4l12.8 6.4c57.6 38.4 96 102.4 96 172.8 0 57.6-19.2 108.8-64 147.2C569.6 838.4 435.2 832 358.4 755.2c-44.8-44.8-64-96-64-160 6.4-64 38.4-128 96-166.4l12.8-6.4v-172.8H153.6zM371.2 153.6h262.4c19.2 0 32-12.8 32-32v-6.4c0-19.2-12.8-32-32-32H371.2c-19.2 0-32 12.8-32 32v6.4c0 19.2 19.2 32 32 32z"  horiz-adv-x="1024" />

    
    <glyph glyph-name="shezhi" unicode="&#58919;" d="M492.8-89.6c-19.2 0-32 6.4-51.2 12.8l-332.8 192C83.2 128 64 160 64 192V576c0 19.2 6.4 32 12.8 51.2 12.8 12.8 25.6 25.6 38.4 32L448 851.2c32 19.2 64 19.2 96 0l332.8-192c19.2-19.2 38.4-51.2 38.4-83.2v-384c0-32-19.2-64-44.8-83.2l-332.8-192c-12.8-6.4-32-6.4-44.8-6.4z m-19.2 64c12.8-6.4 25.6-6.4 38.4 0l332.8 192c12.8 6.4 19.2 19.2 19.2 32V576c0 12.8-6.4 25.6-19.2 32L512 800c-12.8 6.4-25.6 6.4-38.4 0l-332.8-192c-6.4 0-6.4-6.4-12.8-12.8 0-6.4-6.4-12.8-6.4-19.2v-384c0-12.8 6.4-25.6 19.2-32l332.8-185.6zM492.8 204.8c-102.4 0-179.2 83.2-179.2 179.2s83.2 179.2 179.2 179.2c102.4 0 179.2-83.2 179.2-179.2s-83.2-179.2-179.2-179.2z m0 300.8c-70.4 0-121.6-51.2-121.6-121.6 0-64 57.6-121.6 121.6-121.6C563.2 262.4 614.4 320 614.4 384c0 70.4-51.2 121.6-121.6 121.6z"  horiz-adv-x="1024" />

    
    <glyph glyph-name="bianji" unicode="&#58918;" d="M840.533333 46.933333H307.2c-68.266667 0-123.733333 55.466667-123.733333 123.733334V580.266667c0 68.266667 55.466667 123.733333 123.733333 123.733333h341.333333c17.066667 0 29.866667-12.8 29.866667-29.866667s-12.8-29.866667-29.866667-29.866666h-341.333333c-34.133333 0-64-29.866667-64-64v-413.866667c0-34.133333 29.866667-64 64-64h473.6V516.266667c0 17.066667 12.8 29.866667 29.866667 29.866666s29.866667-12.8 29.866666-29.866666v-469.333334zM878.933333 721.066667c12.8-12.8 12.8-29.866667 0-42.666667L499.2 298.666667c-12.8-12.8-29.866667-12.8-42.666667 0-12.8 12.8-12.8 29.866667 0 42.666666l379.733334 379.733334c12.8 12.8 34.133333 12.8 42.666666 0z"  horiz-adv-x="1024" />

    
    <glyph glyph-name="xiangqing" unicode="&#58916;" d="M819.2 46.933333H328.533333c-68.266667 0-123.733333 55.466667-123.733333 123.733334V631.466667c0 68.266667 55.466667 123.733333 123.733333 123.733333h371.2c68.266667 0 123.733333-55.466667 123.733334-123.733333v-584.533334zM328.533333 695.466667c-34.133333 0-64-29.866667-64-64V170.666667c0-34.133333 29.866667-64 64-64h430.933334V631.466667c0 34.133333-29.866667 64-64 64H328.533333zM392.533333 469.333333h238.933334c17.066667 0 29.866667 12.8 29.866666 29.866667 0 17.066667-12.8 29.866667-29.866666 29.866667H392.533333c-17.066667 0-29.866667-12.8-29.866666-29.866667 0-17.066667 12.8-29.866667 29.866666-29.866667zM392.533333 281.6h238.933334c17.066667 0 29.866667 12.8 29.866666 29.866667 0 17.066667-12.8 29.866667-29.866666 29.866666H392.533333c-17.066667 0-29.866667-12.8-29.866666-29.866666 0-17.066667 12.8-29.866667 29.866666-29.866667z"  horiz-adv-x="1024" />

    
    <glyph glyph-name="shanchu" unicode="&#58915;" d="M797.866667 55.466667H384c-64 0-115.2 51.2-115.2 115.2v298.666666c0 17.066667 12.8 29.866667 29.866667 29.866667s29.866667-12.8 29.866666-29.866667v-298.666666c0-29.866667 25.6-55.466667 55.466667-55.466667h354.133333V469.333333c0 17.066667 12.8 29.866667 29.866667 29.866667s29.866667-12.8 29.866667-29.866667v-413.866666zM243.2 597.333333h580.266667c17.066667 0 29.866667-12.8 29.866666-29.866666 0-17.066667-12.8-29.866667-29.866666-29.866667H243.2c-17.066667 0-29.866667 12.8-29.866667 29.866667 0 17.066667 12.8 29.866667 29.866667 29.866666zM618.666667 157.866667c-17.066667 0-29.866667 12.8-29.866667 29.866666V469.333333c0 17.066667 12.8 29.866667 29.866667 29.866667s29.866667-12.8 29.866666-29.866667v-281.6c0-17.066667-12.8-29.866667-29.866666-29.866666zM448 157.866667c-17.066667 0-29.866667 12.8-29.866667 29.866666V469.333333c0 17.066667 12.8 29.866667 29.866667 29.866667s29.866667-12.8 29.866667-29.866667v-281.6c0-17.066667-12.8-29.866667-29.866667-29.866666zM712.533333 597.333333h-59.733333V682.666667c0 8.533333-4.266667 12.8-12.8 12.8h-213.333333c-8.533333 0-12.8-4.266667-12.8-12.8v-85.333334H354.133333V682.666667c0 38.4 34.133333 72.533333 72.533334 72.533333h213.333333c38.4 0 72.533333-34.133333 72.533333-72.533333v-85.333334z"  horiz-adv-x="1024" />

    
    <glyph glyph-name="piliangdayinerweima" unicode="&#58914;" d="M350.08 424.32h-172.8c-70.4 0-128 57.6-128 128v166.4c0 70.4 57.6 128 128 128h166.4c70.4 0 128-57.6 128-128v-166.4c0-70.4-57.6-128-121.6-128z m-172.8 358.4c-38.4 0-64-32-64-64v-166.4c0-38.4 32-64 64-64h166.4c38.4 0 64 32 64 64v166.4c0 38.4-32 64-64 64h-166.4zM350.08-36.48h-172.8c-70.4 0-128 57.6-128 128v166.4c0 70.4 57.6 128 128 128h166.4c70.4 0 128-57.6 128-128v-166.4c0-70.4-57.6-128-121.6-128z m-172.8 364.8c-38.4 0-64-32-64-64v-166.4c0-38.4 32-64 64-64h166.4c38.4 0 64 32 64 64v160c0 38.4-32 64-64 64h-166.4zM804.48 424.32h-166.4c-70.4 0-121.6 57.6-121.6 128v166.4c0 70.4 57.6 128 121.6 128h166.4c70.4 0 128-57.6 128-128v-166.4c-6.4-70.4-64-128-128-128z m-166.4 358.4c-38.4 0-64-32-64-64v-166.4c0-38.4 32-64 64-64h166.4c38.4 0 64 32 64 64v166.4c0 38.4-32 64-64 64h-166.4zM900.48 385.92h6.4c12.8 0 25.6-12.8 25.6-25.6v-358.4c0-12.8-12.8-25.6-25.6-25.6h-6.4c-12.8 0-25.6 12.8-25.6 25.6v352c-6.4 19.2 6.4 32 25.6 32zM721.28 277.12h6.4c12.8 0 25.6-12.8 25.6-25.6v-256c0-12.8-12.8-25.6-25.6-25.6h-6.4c-12.8 0-25.6 12.8-25.6 25.6v256c-6.4 12.8 6.4 25.6 25.6 25.6zM542.08 174.72h6.4c12.8 0 25.6-12.8 25.6-25.6v-153.6c0-12.8-12.8-25.6-25.6-25.6h-6.4c-12.8 0-25.6 12.8-25.6 25.6v153.6c-6.4 12.8 6.4 25.6 25.6 25.6z"  horiz-adv-x="1024" />

    
    <glyph glyph-name="mianbaoxieshouye" unicode="&#58913;" d="M572.235294 877.929412l349.364706-265.035294c24.094118-18.070588 42.164706-48.188235 42.164706-78.305883v-487.905882c0-54.211765-42.164706-96.376471-102.4-96.376471h-186.729412V112.941176c0 96.376471-66.258824 180.705882-156.611765 186.729412h-12.047058c-90.352941 0-156.611765-78.305882-162.635295-174.682353V-49.694118H156.611765C102.4-49.694118 60.235294-7.529412 60.235294 46.682353V534.588235c0 30.117647 12.047059 60.235294 42.164706 78.305883L451.764706 877.929412c36.141176 24.094118 84.329412 24.094118 120.470588 0z"  horiz-adv-x="1024" />

    
    <glyph glyph-name="daochu" unicode="&#58912;" d="M339.2-32H179.2c-70.4 0-128 57.6-128 128V716.8c0 70.4 57.6 128 128 128h620.8c70.4 0 128-57.6 128-128v-198.4c0-12.8-12.8-32-32-32s-32 12.8-32 32V716.8c0 38.4-32 64-64 64H179.2c-38.4 0-64-32-64-64v-620.8c0-38.4 32-64 64-64h160c12.8 0 32-12.8 32-32s-19.2-32-32-32zM876.8 300.8H294.4l224 224c12.8 12.8 12.8 32 0 38.4s-32 12.8-38.4 0l-256-256c-6.4-6.4-12.8-19.2-12.8-32s6.4-25.6 12.8-32l256-262.4c6.4-6.4 12.8-6.4 19.2-6.4 6.4 0 12.8 0 19.2 6.4 12.8 12.8 12.8 32 0 38.4l-217.6 217.6h576c19.2 0 32 12.8 32 32 0 12.8-12.8 32-32 32z"  horiz-adv-x="1024" />

    
    <glyph glyph-name="daoru" unicode="&#58911;" d="M339.2-32H179.2c-70.4 0-128 57.6-128 128V716.8c0 70.4 57.6 128 128 128h620.8c70.4 0 128-57.6 128-128v-198.4c0-12.8-12.8-32-32-32s-32 12.8-32 32V716.8c0 38.4-32 64-64 64H179.2c-38.4 0-64-32-64-64v-620.8c0-38.4 32-64 64-64h160c12.8 0 32-12.8 32-32s-19.2-32-32-32zM633.6-32c-6.4 0-12.8 0-19.2 6.4-12.8 12.8-12.8 32 0 38.4l249.6 249.6-249.6 262.4c-12.8 12.8-12.8 32 0 38.4s32 12.8 38.4 0l256-256c6.4-6.4 12.8-19.2 12.8-32s-6.4-25.6-12.8-32l-256-262.4c-6.4-12.8-12.8-12.8-19.2-12.8z m236.8 294.4zM256 300.8h620.8c19.2 0 32-12.8 32-32s-12.8-32-32-32H256c-19.2 0-32 12.8-32 32 0 12.8 12.8 32 32 32z"  horiz-adv-x="1024" />

    
    <glyph glyph-name="bohuishenpi" unicode="&#58909;" d="M493.929412-49.694118C234.917647-49.694118 30.117647 161.129412 30.117647 414.117647S234.917647 877.929412 493.929412 877.929412s463.811765-204.8 463.811764-463.811765-210.823529-463.811765-463.811764-463.811765z m0 873.411765C271.058824 823.717647 84.329412 643.011765 84.329412 414.117647c0-222.870588 180.705882-409.6 409.6-409.6 222.870588 0 409.6 180.705882 409.6 409.6s-186.729412 409.6-409.6 409.6zM656.564706 576.752941c12.047059-12.047059 12.047059-30.117647 6.023529-42.164706l-283.105882-283.105882c-12.047059-12.047059-30.117647-12.047059-36.141177 0H331.294118c-12.047059 12.047059-12.047059 30.117647 0 36.141176l283.105882 283.105883c12.047059 18.070588 30.117647 18.070588 42.164706 6.023529zM656.564706 251.482353c-12.047059-12.047059-30.117647-12.047059-42.164706-6.023529L325.270588 534.588235c-12.047059 12.047059-12.047059 30.117647 0 36.141177l6.02353 6.023529c12.047059 12.047059 30.117647 12.047059 36.141176 0l283.105882-283.105882c12.047059-12.047059 12.047059-30.117647 6.02353-42.164706z"  horiz-adv-x="1024" />

    
    <glyph glyph-name="tongzhiguanli" unicode="&#58908;" d="M731.52 0l-230.4 140.8h-294.4c-25.6 0-51.2 12.8-70.4 25.6-19.2 19.2-32 38.4-32 64V576c0 25.6 12.8 51.2 25.6 70.4 19.2 19.2 44.8 25.6 70.4 25.6h294.4l230.4 166.4c12.8 6.4 25.6 0 25.6-12.8v-806.4c6.4-19.2-12.8-25.6-19.2-19.2z m-217.6 192l172.8-102.4c6.4 0 12.8 0 12.8 6.4V723.2c0 6.4-6.4 12.8-12.8 6.4l-166.4-115.2h-313.6c-12.8 0-19.2-6.4-25.6-12.8-12.8-6.4-19.2-19.2-19.2-25.6v-339.2c0-12.8 6.4-19.2 12.8-25.6 6.4-6.4 19.2-12.8 25.6-12.8l313.6-6.4zM904.32 51.2c-6.4 0-12.8 0-19.2 6.4-12.8 12.8-12.8 25.6-6.4 38.4 64 76.8 96 192 96 307.2 0 121.6-38.4 230.4-96 307.2-6.4 12.8-6.4 32 6.4 44.8 12.8 12.8 32 6.4 38.4-6.4 70.4-89.6 108.8-211.2 108.8-345.6s-38.4-256-108.8-345.6c-6.4-6.4-12.8-6.4-19.2-6.4z"  horiz-adv-x="1152" />

    
    <glyph glyph-name="celiangdingdanguanli" unicode="&#58907;" d="M800-32h-128c-70.4 0-128 57.6-128 128V716.8c0 70.4 57.6 128 128 128h128c70.4 0 128-57.6 128-128v-620.8c0-70.4-57.6-128-128-128zM678.4 780.8c-38.4 0-64-32-64-64v-620.8c0-38.4 32-64 64-64h128c38.4 0 64 32 64 64V716.8c0 38.4-32 64-64 64h-128zM601.6 659.2h108.8c12.8 0 25.6-12.8 25.6-32v-6.4c0-12.8-12.8-25.6-25.6-25.6H601.6c-12.8 0-25.6 12.8-25.6 32v6.4c0 12.8 12.8 25.6 25.6 25.6zM601.6 499.2h172.8c12.8 0 25.6-12.8 25.6-25.6v-6.4c0-12.8-12.8-25.6-25.6-25.6H601.6c-12.8-6.4-25.6 6.4-25.6 19.2v6.4c0 19.2 12.8 32 25.6 32zM601.6 332.8h83.2c12.8 0 25.6-12.8 25.6-25.6v-6.4c0-12.8-12.8-25.6-25.6-25.6H601.6c-12.8-6.4-25.6 6.4-25.6 19.2v6.4c0 19.2 12.8 32 25.6 32zM601.6 166.4h147.2c12.8 0 25.6-12.8 25.6-25.6v-6.4c0-12.8-12.8-25.6-25.6-25.6H601.6c-12.8 0-25.6 12.8-25.6 25.6v6.4c0 12.8 12.8 25.6 25.6 25.6zM473.6 12.8c-6.4 0-19.2 6.4-25.6 12.8L83.2 352C64 371.2 57.6 396.8 57.6 422.4c0 25.6 12.8 51.2 32 70.4l358.4 320c12.8 12.8 25.6 12.8 38.4 6.4 12.8 0 25.6-19.2 25.6-32v-736c0-12.8-6.4-32-25.6-32 0-6.4-6.4-6.4-12.8-6.4z m12.8 51.2zM128 448c-6.4-6.4-12.8-19.2-12.8-25.6 0-12.8 6.4-19.2 12.8-25.6l326.4-294.4V748.8L128 448zM364.8 268.8c-12.8 0-19.2 6.4-25.6 12.8L236.8 377.6c-12.8 6.4-12.8 19.2-12.8 25.6s6.4 19.2 12.8 25.6l108.8 102.4c6.4 19.2 19.2 19.2 38.4 12.8 12.8-6.4 19.2-19.2 19.2-32v-204.8c0-12.8-6.4-32-25.6-38.4h-12.8z m12.8 51.2zM288 403.2l57.6-57.6V460.8l-57.6-57.6z"  horiz-adv-x="1024" />

    
    <glyph glyph-name="caiwuguanli" unicode="&#58906;" d="M115.2 256H57.6V736c0 70.4 57.6 128 128 128H448c70.4 0 128-57.6 128-128v-38.4H512v38.4c0 38.4-32 64-64 64H179.2c-38.4 0-64-32-64-64V256zM800-12.8H179.2c-70.4 0-128 57.6-128 128V595.2c0 70.4 57.6 128 128 128h620.8c70.4 0 128-57.6 128-128v-480c0-70.4-57.6-128-128-128zM179.2 659.2c-38.4 0-64-32-64-64v-480c0-38.4 32-64 64-64h620.8c38.4 0 64 32 64 64V595.2c0 38.4-32 64-64 64H179.2zM358.4 444.352h268.8c19.2 0 32-12.8 32-32s-12.8-32-32-32H358.4c-19.2 0-32 12.8-32 32s12.8 32 32 32zM473.6 457.152l83.2 83.2c12.8 12.8 32 12.8 44.8 0 12.8-12.8 12.8-32 0-44.8l-83.2-83.2c-12.8-12.8-32-12.8-44.8 0-12.8 12.8-12.8 32 0 44.8zM422.4 540.352l89.6-89.6c12.8-12.8 12.8-32 0-44.8-12.8-6.4-38.4-6.4-51.2 6.4l-83.2 83.2c-12.8 12.8-12.8 32 0 44.8 12.8 12.8 32 12.8 44.8 0zM358.4 297.152h268.8c19.2 0 32-12.8 32-32s-12.8-32-32-32H358.4c-19.2 0-32 12.8-32 32s12.8 32 32 32zM518.4 412.352v-268.8c0-19.2-12.8-32-32-32s-32 12.8-32 32v268.8c0 19.2 12.8 32 32 32s32-12.8 32-32z"  horiz-adv-x="1024" />

    
    <glyph glyph-name="gongyiluxian" unicode="&#58905;" d="M922.326241-98.950355H217.87234c-79.886525 0-145.248227 65.361702-145.248227 145.248227V750.751773c0 79.886525 65.361702 145.248227 145.248227 145.248227h704.453901c79.886525 0 145.248227-65.361702 145.248227-145.248227v-704.453901c-7.262411-79.886525-72.624113-145.248227-145.248227-145.248227zM217.87234 823.375887c-43.574468 0-72.624113-36.312057-72.624113-72.624114v-704.453901c0-43.574468 36.312057-72.624113 72.624113-72.624113h704.453901c43.574468 0 72.624113 36.312057 72.624114 72.624113V750.751773c0 43.574468-36.312057 72.624113-72.624114 72.624114H217.87234zM682.666667 358.58156H479.319149c-14.524823 0-36.312057 14.524823-36.312057 36.312057s14.524823 36.312057 36.312057 36.312057h203.347518c43.574468 0 79.886525 36.312057 79.886524 79.886525 0 43.574468-36.312057 79.886525-79.886524 79.886524H493.843972c-14.524823 0-36.312057 14.524823-36.312057 36.312057s14.524823 36.312057 36.312057 36.312057h188.822695c79.886525 0 145.248227-65.361702 145.248227-145.248227 0-94.411348-65.361702-159.77305-145.248227-159.77305zM639.092199 133.446809H450.269504c-79.886525 0-145.248227 65.361702-145.248227 145.248226s65.361702 145.248227 145.248227 145.248227h217.87234c14.524823 0 36.312057-14.524823 36.312057-36.312056s-14.524823-36.312057-36.312057-36.312057h-217.87234c-43.574468 0-79.886525-36.312057-79.886525-79.886525s36.312057-79.886525 79.886525-79.886525h188.822695c14.524823 0 36.312057-14.524823 36.312056-36.312056s-21.787234-21.787234-36.312056-21.787234zM406.695035 518.35461c-58.099291 0-108.93617 50.836879-108.93617 108.93617s50.836879 108.93617 108.93617 108.93617 108.93617-50.836879 108.936171-108.93617-50.836879-108.93617-108.936171-108.93617z m0 145.248227c-21.787234 0-36.312057-14.524823-36.312056-36.312057s14.524823-36.312057 36.312056-36.312057 36.312057 14.524823 36.312057 36.312057-14.524823 36.312057-36.312057 36.312057zM726.241135 60.822695c-58.099291 0-108.93617 50.836879-108.93617 108.93617s50.836879 108.93617 108.93617 108.93617 108.93617-50.836879 108.93617-108.93617-50.836879-108.93617-108.93617-108.93617z m0 145.248227c-21.787234 0-36.312057-14.524823-36.312057-36.312057s14.524823-36.312057 36.312057-36.312056 36.312057 14.524823 36.312056 36.312056-14.524823 36.312057-36.312056 36.312057z"  horiz-adv-x="1161" />

    
    <glyph glyph-name="shengchanjihuabiao" unicode="&#58904;" d="M807.68-32h-633.6c-64 0-121.6 51.2-121.6 121.6V678.4c0 64 51.2 121.6 121.6 121.6h633.6c64 0 121.6-51.2 121.6-121.6v-595.2c0-64-57.6-115.2-121.6-115.2zM174.08 742.4c-32 0-64-25.6-64-64v-595.2c0-32 25.6-64 64-64h633.6c32 0 64 25.6 64 64V678.4c0 32-25.6 64-64 64h-633.6zM279.68 896c19.2 0 32-12.8 32-32v-198.4c0-19.2-12.8-32-32-32s-32 12.8-32 32V864c0 19.2 12.8 32 32 32zM708.48 896c19.2 0 32-12.8 32-32v-198.4c0-19.2-12.8-32-32-32s-32 12.8-32 32V864c0 19.2 12.8 32 32 32zM768 466.56c0-19.2-12.8-32-32-32H384c-19.2 0-32 12.8-32 32s12.8 32 32 32h352c19.2 0 32-12.8 32-32zM307.2 466.56c0-19.2-12.8-32-32-32h-32c-19.2 0-32 12.8-32 32s12.8 32 32 32h32c19.2 0 32-12.8 32-32zM768 240c0-19.2-12.8-32-32-32H384c-19.2 0-32 12.8-32 32s12.8 32 32 32h352c19.2 0 32-12.8 32-32zM307.2 240c0-19.2-12.8-32-32-32h-32c-19.2 0-32 12.8-32 32s12.8 32 32 32h32c19.2 0 32-12.8 32-32z"  horiz-adv-x="1024" />

    
    <glyph glyph-name="chukubiao" unicode="&#58903;" d="M804.48-30.08h-627.2c-70.4 0-128 57.6-128 128v620.8c0 70.4 57.6 128 128 128h620.8c70.4 0 128-57.6 128-128v-620.8c0-70.4-57.6-128-121.6-128z m-627.2 812.8c-38.4 0-64-32-64-64v-620.8c0-38.4 32-64 64-64h620.8c38.4 0 64 32 64 64v620.8c0 38.4-32 64-64 64h-620.8zM259.2 462.08c0 19.2 12.8 32 32 32h390.4c19.2 0 32-12.8 32-32s-12.8-32-32-32h-390.4c-19.2 0-32 12.8-32 32zM259.2 353.28c0 19.2 12.8 32 32 32h390.4c19.2 0 32-12.8 32-32s-12.8-32-32-32h-390.4c-19.2 0-32 19.2-32 32zM700.8 436.48c-12.8-12.8-32-12.8-44.8 0l-96 89.6c-12.8 12.8-12.8 32 0 44.8 12.8 12.8 32 12.8 44.8 0l89.6-89.6c19.2-12.8 19.2-32 6.4-44.8zM707.2 372.48c12.8-12.8 12.8-32 0-44.8l-96-96c-12.8-12.8-32-12.8-44.8 0-12.8 12.8-12.8 32 0 44.8l89.6 89.6c12.8 19.2 38.4 19.2 51.2 6.4z"  horiz-adv-x="1024" />

    
    <glyph glyph-name="shenpiliebiao" unicode="&#58902;" d="M832-51.2H153.6c-25.6 0-51.2 12.8-70.4 25.6-19.2 19.2-25.6 44.8-25.6 70.4v179.2c0 32 6.4 51.2 25.6 70.4 19.2 19.2 44.8 32 70.4 32h185.6V403.2c-64 44.8-102.4 121.6-108.8 198.4 0 76.8 25.6 147.2 76.8 198.4C358.4 851.2 422.4 876.8 492.8 876.8c70.4 0 134.4-25.6 185.6-76.8 51.2-51.2 76.8-115.2 76.8-185.6 0-83.2-38.4-160-108.8-211.2V320H832c25.6 0 51.2-12.8 70.4-25.6 19.2-19.2 25.6-44.8 25.6-70.4v-179.2c0-25.6-12.8-51.2-25.6-70.4-19.2-12.8-44.8-25.6-70.4-25.6z m-678.4 320c-12.8 0-19.2-6.4-25.6-12.8-6.4-6.4-12.8-19.2-12.8-25.6v-179.2c0-12.8 6.4-19.2 12.8-25.6 6.4-6.4 19.2-12.8 25.6-12.8H832c12.8 0 19.2 6.4 25.6 12.8 6.4 6.4 12.8 19.2 12.8 25.6v179.2c0 12.8-6.4 19.2-12.8 25.6s-19.2 12.8-25.6 12.8H588.8V435.2l12.8 6.4c57.6 38.4 96 102.4 96 172.8 0 51.2-19.2 102.4-57.6 140.8C563.2 832 428.8 832 352 755.2c-44.8-38.4-64-89.6-64-153.6 6.4-64 38.4-121.6 96-160l12.8-6.4v-166.4H153.6zM364.8 166.4h256c12.8 0 25.6-12.8 25.6-25.6v-6.4c0-12.8-12.8-25.6-25.6-25.6h-256c-12.8 0-25.6 12.8-25.6 25.6v6.4c-6.4 12.8 6.4 25.6 25.6 25.6z"  horiz-adv-x="1024" />

    
    <glyph glyph-name="ziduanpeizhi" unicode="&#58900;" d="M868.48-49.28h-627.2c-70.4 0-128 57.6-128 128v614.4c0 70.4 57.6 128 128 128h620.8c70.4 0 128-57.6 128-128v-620.8c0-64-57.6-121.6-121.6-121.6z m-627.2 812.8c-38.4 0-64-32-64-64v-620.8c0-38.4 32-64 64-64h620.8c38.4 0 64 32 64 64v614.4c0 38.4-32 64-64 64h-620.8zM170.88 597.12h761.6c12.8 0 25.6-12.8 25.6-32 0-12.8-12.8-25.6-25.6-25.6H170.88c-12.8-6.4-25.6 6.4-25.6 25.6v6.4c0 12.8 12.8 25.6 25.6 25.6zM433.28 424.32c6.4-12.8 6.4-32 0-38.4l-115.2-115.2 115.2-115.2c6.4-6.4 6.4-25.6 0-38.4-12.8-12.8-32-12.8-38.4 0l-140.8 134.4c-6.4 12.8-6.4 32 0 38.4l134.4 134.4c12.8 12.8 32 12.8 44.8 0zM682.88 424.32c-12.8-12.8-12.8-32 0-38.4l115.2-115.2-115.2-115.2c-12.8-12.8-12.8-32 0-38.4 12.8-12.8 32-12.8 38.4 0l134.4 134.4c12.8 12.8 12.8 32 0 38.4l-134.4 134.4c-12.8 12.8-32 12.8-38.4 0zM606.08 462.72c19.2-6.4 32-25.6 25.6-38.4l-89.6-326.4c-6.4-12.8-19.2-25.6-38.4-19.2h-6.4c-12.8 6.4-25.6 19.2-19.2 38.4l89.6 326.4c6.4 12.8 25.6 19.2 38.4 19.2z"  horiz-adv-x="1152" />

    
    <glyph glyph-name="anzhuangdingdanguanli" unicode="&#58899;" d="M832-32H153.6c-25.6 0-51.2 12.8-70.4 25.6-19.2 19.2-25.6 44.8-25.6 70.4V556.8l108.8 230.4c6.4 19.2 19.2 32 38.4 38.4 12.8 12.8 32 12.8 51.2 12.8h480c19.2 0 38.4-6.4 51.2-12.8l38.4-38.4 108.8-236.8V64c0-25.6-12.8-51.2-25.6-70.4s-51.2-25.6-76.8-25.6zM115.2 537.6V64c0-12.8 6.4-19.2 12.8-25.6 6.4-6.4 19.2-12.8 25.6-12.8H832c12.8 0 19.2 6.4 25.6 12.8s12.8 19.2 12.8 25.6V544L768 761.6c0 6.4-6.4 12.8-12.8 12.8-6.4 6.4-12.8 6.4-19.2 6.4H249.6c-6.4 0-12.8 0-19.2-6.4-6.4 0-12.8-6.4-12.8-12.8L115.2 537.6zM83.2 569.6H896V512H83.2zM493.248 435.2c19.2 0 32-12.8 32-25.6v-198.4c0-19.2-12.8-32-25.6-32h-6.4c-19.2 0-32 12.8-32 32V409.6c0 12.8 12.8 25.6 32 25.6zM333.248 313.6c19.2 12.8 38.4 12.8 44.8 0l140.8-134.4c12.8-12.8 12.8-32 0-38.4l-6.4-6.4c-12.8-12.8-32-12.8-38.4 0l-140.8 134.4c-6.4 12.8-6.4 32 0 44.8zM646.848 313.6c12.8-12.8 12.8-32 6.4-44.8l-134.4-140.8c-12.8-6.4-32-6.4-44.8 0v6.4c-12.8 12.8-12.8 32 0 38.4l134.4 134.4c6.4 12.8 25.6 12.8 38.4 6.4z"  horiz-adv-x="1024" />

    
    <glyph glyph-name="yunshudingdanguanli" unicode="&#58898;" d="M710.4-32c-32 0-64 19.2-83.2 44.8H358.4c-19.2-25.6-44.8-44.8-83.2-44.8s-64 19.2-83.2 44.8H96c-25.6 0-51.2 12.8-70.4 25.6-12.8 25.6-25.6 44.8-25.6 70.4V697.6c0 25.6 12.8 51.2 25.6 70.4 19.2 19.2 44.8 25.6 70.4 25.6h556.8c25.6 0 51.2-12.8 70.4-25.6 19.2-19.2 25.6-44.8 25.6-70.4v-134.4c44.8 0 64-6.4 83.2-19.2l108.8-76.8c25.6-19.2 38.4-44.8 38.4-76.8v-275.2c0-25.6-12.8-51.2-25.6-70.4-19.2-19.2-44.8-25.6-70.4-25.6h-96c-12.8-32-44.8-51.2-76.8-51.2z m-396.8 102.4h352l6.4-19.2c12.8-32 64-32 70.4 0l6.4 19.2h134.4c12.8 0 19.2 6.4 25.6 12.8 6.4 6.4 12.8 19.2 12.8 25.6V384c0 12.8-6.4 25.6-12.8 32l-108.8 76.8c-6.4 6.4-25.6 6.4-76.8 12.8h-25.6v192c0 12.8-6.4 19.2-12.8 25.6-6.4 6.4-19.2 12.8-25.6 12.8H96c-12.8 0-19.2-6.4-25.6-12.8-6.4-6.4-12.8-19.2-12.8-25.6v-582.4c0-12.8 6.4-19.2 12.8-25.6 6.4-6.4 19.2-12.8 25.6-12.8h134.4l6.4-19.2c12.8-32 64-32 70.4 0l6.4 12.8zM851.2 268.8h-140.8V448l83.2 6.4 64-44.8v-140.8zM768 326.4h25.6V384l-19.2 12.8H768v-70.4z"  horiz-adv-x="1024" />

    
    <glyph glyph-name="shengchandingdanguanli" unicode="&#58896;" d="M153.6-32c-25.6 0-51.2 12.8-70.4 25.6-19.2 19.2-25.6 38.4-25.6 64L140.8 755.2c0 25.6 12.8 44.8 32 57.6 19.2 19.2 38.4 25.6 64 25.6h268.8c25.6 0 44.8-6.4 64-25.6 19.2-12.8 25.6-38.4 32-57.6l83.2-678.4c0-25.6-6.4-51.2-19.2-70.4-12.8-19.2-38.4-32-64-38.4h-448zM236.8 780.8c-6.4 0-19.2-6.4-25.6-12.8-6.4 0-12.8-12.8-12.8-19.2L115.2 57.6c0-6.4 6.4-12.8 12.8-19.2 6.4-6.4 19.2-12.8 25.6-12.8h441.6c6.4 0 12.8 6.4 19.2 12.8 6.4 6.4 6.4 19.2 6.4 25.6L544 748.8c0 6.4-6.4 19.2-12.8 25.6-6.4 6.4-19.2 6.4-25.6 6.4H236.8zM294.4 512h147.2c19.2 0 32-12.8 32-32s-12.8-32-32-32H294.4c-12.8 0-32 12.8-32 32s19.2 32 32 32zM294.4 294.4h147.2c19.2 0 32-12.8 32-32s-12.8-32-32-32H294.4c-19.2 0-32 12.8-32 32s19.2 32 32 32zM806.4-32H492.8c-12.8 0-32 12.8-32 32s12.8 32 32 32h320c32 6.4 57.6 38.4 57.6 76.8L819.2 576c-6.4 32-32 57.6-64 57.6H588.8c-12.8 0-25.6 12.8-25.6 25.6s12.8 32 25.6 32h166.4c64 0 115.2-44.8 121.6-108.8l51.2-473.6c6.4-70.4-38.4-128-108.8-134.4-6.4-6.4-6.4-6.4-12.8-6.4z"  horiz-adv-x="1024" />

    
    <glyph glyph-name="bujianguanli" unicode="&#58895;" d="M409.6 420.571429H219.428571c-80.457143 0-146.285714 65.828571-146.285714 146.285714V749.714286c0 80.457143 65.828571 146.285714 146.285714 146.285714h190.171429c80.457143 0 146.285714-65.828571 146.285714-146.285714v-190.171429c-7.314286-73.142857-73.142857-138.971429-146.285714-138.971428zM219.428571 830.171429c-43.885714 0-73.142857-36.571429-73.142857-73.142858v-190.171428c0-43.885714 36.571429-73.142857 73.142857-73.142857h190.171429c43.885714 0 73.142857 36.571429 73.142857 73.142857V749.714286c0 43.885714-36.571429 73.142857-73.142857 73.142857H219.428571zM409.6-106.057143H219.428571c-80.457143 0-146.285714 65.828571-146.285714 146.285714V230.4c0 80.457143 65.828571 146.285714 146.285714 146.285714h190.171429c80.457143 0 146.285714-65.828571 146.285714-146.285714v-190.171429c-7.314286-80.457143-73.142857-146.285714-146.285714-146.285714zM219.428571 310.857143c-43.885714 0-73.142857-36.571429-73.142857-73.142857v-190.171429c0-43.885714 36.571429-73.142857 73.142857-73.142857h190.171429c43.885714 0 73.142857 36.571429 73.142857 73.142857V230.4c0 43.885714-36.571429 73.142857-73.142857 73.142857H219.428571zM833.828571-106.057143c-131.657143 0-241.371429 109.714286-241.371428 241.371429s109.714286 241.371429 241.371428 241.371428 241.371429-109.714286 241.371429-241.371428-109.714286-241.371429-241.371429-241.371429z m0 416.914286C738.742857 310.857143 658.285714 230.4 658.285714 135.314286s80.457143-175.542857 175.542857-175.542857 175.542857 80.457143 175.542858 175.542857S928.914286 310.857143 833.828571 310.857143zM928.914286 420.571429h-190.171429c-80.457143 0-138.971429 65.828571-138.971428 146.285714V749.714286c0 80.457143 65.828571 146.285714 138.971428 146.285714h190.171429c80.457143 0 146.285714-65.828571 146.285714-146.285714v-190.171429c-7.314286-73.142857-73.142857-138.971429-146.285714-138.971428zM738.742857 830.171429c-43.885714 0-73.142857-36.571429-73.142857-73.142858v-190.171428c0-43.885714 36.571429-73.142857 73.142857-73.142857h190.171429c43.885714 0 73.142857 36.571429 73.142857 73.142857V749.714286c0 43.885714-36.571429 73.142857-73.142857 73.142857h-190.171429z"  horiz-adv-x="1170" />

    
    <glyph glyph-name="gongyishuxing" unicode="&#58894;" d="M390.4 76.8c-32 0-64 12.8-89.6 38.4L153.6 262.4c-25.6 25.6-38.4 57.6-38.4 89.6 0 32 12.8 64 38.4 89.6l364.8 364.8c44.8 44.8 128 44.8 179.2 0l147.2-147.2c51.2-51.2 51.2-128 0-179.2l-364.8-364.8c-25.6-25.6-57.6-38.4-89.6-38.4zM608 787.2c-19.2 0-32-6.4-44.8-19.2L192 396.8c-12.8-12.8-19.2-25.6-19.2-44.8 0-19.2 6.4-32 19.2-44.8l147.2-147.2c25.6-25.6 70.4-25.6 96 0l364.8 364.8c25.6 25.6 25.6 70.4 0 96L652.8 768c-6.4 12.8-25.6 19.2-44.8 19.2zM883.2-32c-19.2 0-38.4 6.4-51.2 19.2l-224 224C576 249.6 576 294.4 608 320l32 32c25.6 25.6 76.8 25.6 102.4 0l224-224c12.8-12.8 19.2-32 19.2-51.2s-6.4-38.4-19.2-51.2l-32-32c-12.8-12.8-32-25.6-51.2-25.6z m-192 352c-6.4 0-6.4 0-12.8-6.4l-32-32c-6.4-6.4-6.4-19.2 0-19.2l224-224s6.4-6.4 12.8-6.4 6.4 0 12.8 6.4l32 32s6.4 6.4 6.4 12.8 0 6.4-6.4 12.8l-230.4 217.6-6.4 6.4zM179.2-6.4h371.2c19.2 0 32-12.8 32-32s-12.8-32-32-32H179.2c-19.2 0-32 12.8-32 32s12.8 32 32 32z"  horiz-adv-x="1152" />

    
    <glyph glyph-name="gongxuguanli" unicode="&#58893;" d="M864-51.2H243.2c-70.4 0-128 57.6-128 128V697.6c0 70.4 57.6 128 128 128h620.8c70.4 0 128-57.6 128-128v-620.8c0-70.4-57.6-128-128-128zM243.2 761.6c-38.4 0-64-32-64-64v-620.8c0-38.4 32-64 64-64h620.8c38.4 0 64 32 64 64V697.6c0 38.4-32 64-64 64H243.2zM461.44 140.8c-12.8 0-25.6 6.4-32 12.8l-64 70.4c-12.8 12.8-12.8 32 0 38.4 12.8 12.8 32 12.8 38.4 0l44.8-44.8v384c0 12.8 12.8 32 32 32s32-12.8 32-32v-416c-6.4-25.6-32-44.8-51.2-44.8zM634.24 140.8c-12.8 0-32 12.8-32 32V588.8c0 25.6 19.2 44.8 44.8 44.8 12.8 0 25.6-6.4 32-12.8l64-70.4c12.8-12.8 12.8-32 0-38.4-6.4-12.8-25.6-12.8-38.4 0l-38.4 38.4v-384c0-12.8-12.8-25.6-32-25.6z"  horiz-adv-x="1152" />

    
    <glyph glyph-name="renyuanguanli" unicode="&#58891;" d="M524.047059-49.694118C265.035294-49.694118 60.235294 161.129412 60.235294 414.117647S265.035294 877.929412 524.047059 877.929412s463.811765-204.8 463.811765-463.811765-210.823529-463.811765-463.811765-463.811765z m0 873.411765C301.176471 823.717647 114.447059 643.011765 114.447059 414.117647c0-222.870588 180.705882-409.6 409.6-409.6 222.870588 0 409.6 180.705882 409.6 409.6s-186.729412 409.6-409.6 409.6zM524.047059 396.047059c-96.376471 0-168.658824 72.282353-168.658824 168.658823 0 90.352941 78.305882 168.658824 168.658824 168.658824 90.352941 0 168.658824-78.305882 168.658823-168.658824 0-96.376471-78.305882-168.658824-168.658823-168.658823z m0 277.082353c-60.235294 0-114.447059-48.188235-114.447059-114.447059 0-60.235294 48.188235-114.447059 114.447059-114.447059 60.235294 0 114.447059 48.188235 114.447059 114.447059 0 66.258824-54.211765 114.447059-114.447059 114.447059zM771.011765 143.058824c-12.047059 0-30.117647 12.047059-30.117647 30.117647 0 120.470588-102.4 222.870588-222.870589 222.870588S301.176471 287.623529 301.176471 167.152941c0-12.047059-12.047059-30.117647-30.117647-30.117647s-24.094118 18.070588-24.094118 30.117647c0 150.588235 126.494118 277.082353 277.082353 277.082353 150.588235 0 277.082353-126.494118 277.082353-277.082353 0-12.047059-12.047059-24.094118-30.117647-24.094117z"  horiz-adv-x="1084" />

    
    <glyph glyph-name="wuliaoguanli" unicode="&#58890;" d="M830.08-34.56H151.68c-25.6 0-51.2 12.8-70.4 25.6-12.8 25.6-25.6 51.2-25.6 70.4v492.8l108.8 230.4c6.4 19.2 19.2 32 32 44.8 19.2 6.4 38.4 12.8 57.6 12.8h480c19.2 0 38.4-6.4 51.2-12.8l38.4-38.4 108.8-236.8v-486.4c0-25.6-12.8-51.2-25.6-70.4s-51.2-32-76.8-32z m-716.8 576v-473.6c0-12.8 6.4-19.2 12.8-25.6 6.4-6.4 19.2-12.8 25.6-12.8h678.4c12.8 0 19.2 6.4 25.6 12.8s12.8 19.2 12.8 25.6v480l-102.4 217.6c0 6.4-6.4 12.8-12.8 12.8-6.4 6.4-12.8 6.4-19.2 6.4h-480c-6.4 0-12.8 0-19.2-6.4-12.8-6.4-12.8-6.4-19.2-12.8l-102.4-224zM81.28 573.44h812.8v-57.6H81.28zM388.48 528.64l-57.6 6.4 51.2 294.4 57.6-12.8-51.2-288z m204.8 0l-51.2 288 57.6 12.8 51.2-294.4-57.6-6.4zM599.68 279.04c-12.8 0-25.6 6.4-32 12.8l-70.4 64-70.4-64c-32-19.2-64-19.2-83.2 6.4-6.4 6.4-12.8 19.2-12.8 32v211.2h57.6v-198.4l102.4 89.6 102.4-89.6v198.4h57.6v-211.2c0-25.6-25.6-51.2-51.2-51.2z"  horiz-adv-x="1024" />

    
    <glyph glyph-name="chanpinguanli" unicode="&#58889;" d="M211.626667-18.773333c-27.306667 0-54.613333 13.653333-75.093334 27.306666-20.48 20.48-27.306667 47.786667-27.306666 75.093334V281.6c-34.133333 13.653333-61.44 34.133333-81.92 61.44-13.653333 27.306667-27.306667 61.44-27.306667 95.573333 0 47.786667 20.48 88.746667 47.786667 122.88 68.266667 61.44 177.493333 61.44 245.76 0 27.306667-34.133333 47.786667-75.093333 47.786666-122.88v-184.32l354.986667-6.826666 6.826667 197.973333c0 47.786667 20.48 88.746667 47.786666 122.88 68.266667 54.613333 184.32 54.613333 245.76-6.826667 34.133333-34.133333 47.786667-75.093333 47.786667-122.88 0-34.133333-13.653333-68.266667-27.306667-95.573333-20.48-27.306667-47.786667-47.786667-81.92-61.44v-197.973333c0-27.306667-13.653333-54.613333-27.306666-75.093334-20.48-20.48-40.96-27.306667-68.266667-27.306666H211.626667z m-40.96 566.613333c-27.306667 0-54.613333-13.653333-75.093334-34.133333-20.48-13.653333-34.133333-40.96-34.133333-75.093334 0-20.48 6.826667-40.96 20.48-61.44 13.653333-20.48 40.96-40.96 68.266667-47.786666l27.306666-6.826667V76.8c0-13.653333 6.826667-20.48 13.653334-27.306667 6.826667-6.826667 20.48-13.653333 27.306666-13.653333h621.226667c6.826667 0 20.48 6.826667 27.306667 13.653333 6.826667 6.826667 13.653333 20.48 13.653333 27.306667V329.386667l27.306667 6.826666c27.306667 6.826667 47.786667 20.48 68.266666 47.786667 13.653333 20.48 20.48 40.96 20.48 61.44 0 27.306667-13.653333 54.613333-34.133333 75.093333-40.96 40.96-116.053333 40.96-157.013333 0-20.48-20.48-34.133333-47.786667-34.133334-75.093333l-13.653333-259.413333-477.866667 13.653333V438.613333c0 27.306667-13.653333 54.613333-34.133333 75.093334-20.48 27.306667-47.786667 34.133333-75.093333 34.133333zM935.253333 554.666667h-61.44V725.333333c0 40.96-34.133333 68.266667-68.266666 68.266667H245.76c-40.96 0-68.266667-34.133333-68.266667-68.266667V554.666667h-68.266666V725.333333c0 75.093333 61.44 136.533333 136.533333 136.533334h559.786667c75.093333 0 136.533333-61.44 136.533333-136.533334V554.666667zM212.992-73.386667c-13.653333 0-34.133333 13.653333-34.133333 34.133334V8.533333c0 13.653333 13.653333 34.133333 34.133333 34.133334s34.133333-20.48 34.133333-34.133334v-47.786666c0-20.48-13.653333-34.133333-34.133333-34.133334zM834.218667-73.386667c-13.653333 0-27.306667 13.653333-27.306667 34.133334V8.533333c0 13.653333 13.653333 34.133333 34.133333 34.133334s27.306667-20.48 27.306667-34.133334v-47.786666c0-20.48-13.653333-34.133333-34.133333-34.133334z"  horiz-adv-x="1092" />

    
    <glyph glyph-name="shangpinguanli" unicode="&#58888;" d="M832-53.76H153.6c-25.6 0-51.2 12.8-70.4 25.6-19.2 19.2-25.6 44.8-25.6 70.4v563.2h870.4v-563.2c0-25.6-12.8-51.2-25.6-70.4-19.2-12.8-44.8-25.6-70.4-25.6zM115.2 547.84v-505.6c0-12.8 6.4-19.2 12.8-25.6 6.4-6.4 19.2-12.8 25.6-12.8H832c12.8 0 19.2 6.4 25.6 12.8 6.4 6.4 12.8 19.2 12.8 25.6v505.6H115.2zM857.6 547.84H128c-70.4 0-128 57.6-128 128v25.6c0 70.4 57.6 128 128 128h736c70.4 0 128-57.6 128-128v-25.6c-6.4-70.4-64-128-134.4-128zM128 765.44c-38.4 0-64-32-64-64v-25.6c0-38.4 32-64 64-64h736c38.4 0 64 32 64 64v25.6c0 38.4-32 64-64 64H128zM486.4 183.04c-115.2 0-211.2 96-211.2 211.2 0 12.8 12.8 32 32 32s32-12.8 32-32c0-83.2 70.4-153.6 153.6-153.6s147.2 64 147.2 147.2c0 12.8 12.8 32 32 32s32-12.8 32-32a217.6 217.6 0 0 0-217.6-204.8z"  horiz-adv-x="1024" />

    
    <glyph glyph-name="shouye" unicode="&#58886;" d="M832-51.2H153.6c-25.6 0-51.2 12.8-70.4 25.6-19.2 19.2-25.6 44.8-25.6 70.4V512c0 32 12.8 57.6 38.4 76.8l339.2 256C467.2 870.4 518.4 870.4 550.4 844.8l339.2-256c25.6-19.2 38.4-44.8 38.4-76.8v-467.2c0-25.6-12.8-51.2-25.6-70.4-19.2-12.8-44.8-25.6-70.4-25.6zM492.8 806.4c-6.4 0-19.2 0-25.6-6.4L128 544c-6.4-6.4-12.8-19.2-12.8-32v-467.2c0-12.8 6.4-19.2 12.8-25.6 6.4-6.4 19.2-12.8 25.6-12.8H832c12.8 0 19.2 6.4 25.6 12.8 6.4 6.4 12.8 19.2 12.8 25.6V512c0 12.8-6.4 25.6-12.8 32L512 800c-6.4 0-12.8 6.4-19.2 6.4zM678.4-51.2H300.8v211.2c0 115.2 83.2 211.2 185.6 211.2 102.4 0 185.6-96 185.6-211.2v-211.2z m-320 57.6h262.4v153.6c0 83.2-57.6 153.6-128 153.6s-128-70.4-128-153.6v-153.6z"  horiz-adv-x="1024" />

    
    <glyph glyph-name="dingdanguanli" unicode="&#58885;" d="M806.4-51.2H172.8c-64 0-121.6 51.2-121.6 121.6V659.2c0 64 51.2 121.6 121.6 121.6h89.6v-57.6H172.8c-32 0-64-25.6-64-64V64c0-32 25.6-64 64-64h633.6c32 0 64 25.6 64 64V659.2c0 32-25.6 64-64 64h-96v57.6h96c64 0 121.6-51.2 121.6-121.6V64c0-64-51.2-115.2-121.6-115.2zM678.4 441.6c0-19.2-12.8-32-32-32H332.8c-19.2 0-32 12.8-32 32s12.8 32 32 32h313.6c19.2 0 32-12.8 32-32zM678.4 204.8c0-19.2-12.8-32-32-32H332.8c-19.2 0-32 12.8-32 32s12.8 32 32 32h313.6c19.2 0 32-12.8 32-32zM633.6 627.2H345.6c-70.4 0-128 57.6-128 128s57.6 128 128 128h288c70.4 0 128-57.6 128-128s-57.6-128-128-128z m-288 192c-38.4 0-64-32-64-64s32-64 64-64h288c38.4 0 64 32 64 64s-32 64-64 64H345.6z"  horiz-adv-x="1024" />

    


  </font>
</defs>
</svg>
